<svg width="294" height="663" viewBox="0 0 294 663" fill="none" xmlns="http://www.w3.org/2000/svg">
<path d="M283.938 6.19924L334.963 205.772L358.409 0.447389L363.443 206.541L432.186 10.2028L390.993 213.181L501.819 35.0094L416.326 225.381L564.052 73.7071L438.257 242.57L615.976 124.487L455.76 263.945L655.162 184.973L468.017 288.507L679.779 252.339L474.455 315.107L688.674 323.434L474.773 342.5L681.433 394.934L468.955 369.407L658.393 463.495L457.275 394.569L620.633 525.912L440.278 416.81L569.917 579.266L418.759 435.089L508.618 621.062L393.724 448.553L439.601 649.347L366.344 456.57L366.093 662.797L337.898 458.767L291.532 660.783L309.718 455.041L219.404 643.4L283.121 445.566L153.082 611.461L259.35 430.784L95.6672 566.458L239.516 411.388L49.8436 510.497L224.549 388.284L17.7542 446.194L215.146 362.553L0.899381 376.555L211.748 335.397L0.0673661 304.838L214.514 308.087L15.297 234.394L223.314 281.899L45.8762 168.519L237.738 258.057L90.3752 110.292L257.109 237.678L146.713 62.4364L280.524 221.713L212.256 27.1894L306.886 210.91L283.938 6.19924Z" fill="#FF7F7F"/>
</svg>
